<svg width="178" height="30" viewBox="0 0 178 30" fill="none" xmlns="http://www.w3.org/2000/svg">
<path d="M43.8087 11.8497C44.058 11.6892 44.432 11.5214 44.9307 11.3462C45.444 11.1711 46.0307 11.0836 46.6907 11.0836C47.512 11.0836 48.238 11.2295 48.8687 11.5214C49.514 11.8132 50.0567 12.2219 50.4967 12.7473C50.9367 13.2726 51.2667 13.9002 51.4867 14.6299C51.7214 15.3595 51.8387 16.1622 51.8387 17.0379C51.8387 17.9573 51.6994 18.7891 51.4207 19.5334C51.1567 20.2631 50.7754 20.8834 50.2767 21.3942C49.778 21.9049 49.1767 22.2989 48.4727 22.5763C47.7687 22.8536 46.9767 22.9922 46.0967 22.9922C45.1434 22.9922 44.3 22.9265 43.5667 22.7952C42.8334 22.6638 42.232 22.5325 41.7627 22.4011V6.09244L43.8087 5.74219V11.8497ZM43.8087 20.9563C44.014 21.0147 44.3 21.0731 44.6667 21.1315C45.048 21.1752 45.5174 21.1971 46.0747 21.1971C47.1747 21.1971 48.0547 20.8396 48.7147 20.1245C49.3747 19.3948 49.7047 18.3659 49.7047 17.0379C49.7047 16.4541 49.646 15.9068 49.5287 15.3961C49.4114 14.8853 49.2207 14.4475 48.9567 14.0826C48.6927 13.7032 48.348 13.4113 47.9227 13.207C47.512 12.9881 47.0134 12.8786 46.4267 12.8786C45.8694 12.8786 45.356 12.9734 44.8867 13.1632C44.4174 13.3529 44.058 13.55 43.8087 13.7542V20.9563ZM64.0458 17.0379C64.0458 17.9427 63.9138 18.76 63.6498 19.4896C63.3858 20.2193 63.0118 20.8469 62.5278 21.3723C62.0584 21.8976 61.4938 22.3063 60.8338 22.5982C60.1738 22.8755 59.4551 23.0141 58.6778 23.0141C57.9004 23.0141 57.1818 22.8755 56.5218 22.5982C55.8618 22.3063 55.2898 21.8976 54.8058 21.3723C54.3364 20.8469 53.9698 20.2193 53.7058 19.4896C53.4418 18.76 53.3098 17.9427 53.3098 17.0379C53.3098 16.1476 53.4418 15.3376 53.7058 14.608C53.9698 13.8637 54.3364 13.2289 54.8058 12.7035C55.2898 12.1781 55.8618 11.7768 56.5218 11.4995C57.1818 11.2076 57.9004 11.0617 58.6778 11.0617C59.4551 11.0617 60.1738 11.2076 60.8338 11.4995C61.4938 11.7768 62.0584 12.1781 62.5278 12.7035C63.0118 13.2289 63.3858 13.8637 63.6498 14.608C63.9138 15.3376 64.0458 16.1476 64.0458 17.0379ZM61.9118 17.0379C61.9118 15.7536 61.6184 14.7393 61.0318 13.995C60.4598 13.2361 59.6751 12.8567 58.6778 12.8567C57.6804 12.8567 56.8884 13.2361 56.3018 13.995C55.7298 14.7393 55.4438 15.7536 55.4438 17.0379C55.4438 18.3222 55.7298 19.3437 56.3018 20.1026C56.8884 20.8469 57.6804 21.219 58.6778 21.219C59.6751 21.219 60.4598 20.8469 61.0318 20.1026C61.6184 19.3437 61.9118 18.3222 61.9118 17.0379ZM76.2523 17.0379C76.2523 17.9427 76.1203 18.76 75.8563 19.4896C75.5923 20.2193 75.2183 20.8469 74.7343 21.3723C74.265 21.8976 73.7003 22.3063 73.0403 22.5982C72.3803 22.8755 71.6617 23.0141 70.8843 23.0141C70.107 23.0141 69.3883 22.8755 68.7283 22.5982C68.0683 22.3063 67.4963 21.8976 67.0123 21.3723C66.543 20.8469 66.1763 20.2193 65.9123 19.4896C65.6483 18.76 65.5163 17.9427 65.5163 17.0379C65.5163 16.1476 65.6483 15.3376 65.9123 14.608C66.1763 13.8637 66.543 13.2289 67.0123 12.7035C67.4963 12.1781 68.0683 11.7768 68.7283 11.4995C69.3883 11.2076 70.107 11.0617 70.8843 11.0617C71.6617 11.0617 72.3803 11.2076 73.0403 11.4995C73.7003 11.7768 74.265 12.1781 74.7343 12.7035C75.2183 13.2289 75.5923 13.8637 75.8563 14.608C76.1203 15.3376 76.2523 16.1476 76.2523 17.0379ZM74.1183 17.0379C74.1183 15.7536 73.825 14.7393 73.2383 13.995C72.6663 13.2361 71.8817 12.8567 70.8843 12.8567C69.887 12.8567 69.095 13.2361 68.5083 13.995C67.9363 14.7393 67.6503 15.7536 67.6503 17.0379C67.6503 18.3222 67.9363 19.3437 68.5083 20.1026C69.095 20.8469 69.887 21.219 70.8843 21.219C71.8817 21.219 72.6663 20.8469 73.2383 20.1026C73.825 19.3437 74.1183 18.3222 74.1183 17.0379ZM80.2749 11.3462H84.6089V13.0537H80.2749V18.3075C80.2749 18.8767 80.3189 19.351 80.4069 19.7304C80.4949 20.0953 80.6269 20.3872 80.8029 20.6061C80.9789 20.8104 81.1989 20.9563 81.4629 21.0439C81.7269 21.1315 82.0349 21.1752 82.3869 21.1752C83.0029 21.1752 83.4942 21.1096 83.8609 20.9782C84.2422 20.8323 84.5062 20.7302 84.6529 20.6718L85.0489 22.3574C84.8436 22.4595 84.4842 22.5835 83.9709 22.7295C83.4576 22.89 82.8709 22.9703 82.2109 22.9703C81.4336 22.9703 80.7882 22.8755 80.2749 22.6857C79.7762 22.4814 79.3729 22.1822 79.0649 21.7882C78.7569 21.3942 78.5369 20.9126 78.4049 20.3434C78.2876 19.7596 78.2289 19.0883 78.2289 18.3294V8.17207L80.2749 7.82182V11.3462ZM89.1045 21.2628C89.9405 21.2628 90.5565 21.1534 90.9525 20.9344C91.3631 20.7155 91.5685 20.3653 91.5685 19.8837C91.5685 19.3875 91.3705 18.9934 90.9745 18.7016C90.5785 18.4097 89.9258 18.0814 89.0165 17.7165C88.5765 17.5414 88.1511 17.3662 87.7405 17.1911C87.3445 17.0014 86.9998 16.7824 86.7065 16.5344C86.4131 16.2863 86.1785 15.9871 86.0025 15.6369C85.8265 15.2866 85.7385 14.856 85.7385 14.3453C85.7385 13.3383 86.1125 12.543 86.8605 11.9592C87.6085 11.3608 88.6278 11.0617 89.9185 11.0617C90.2411 11.0617 90.5638 11.0836 90.8865 11.1273C91.2091 11.1565 91.5098 11.2003 91.7885 11.2587C92.0671 11.3025 92.3091 11.3535 92.5145 11.4119C92.7345 11.4703 92.9031 11.5214 93.0205 11.5652L92.6465 13.3164C92.4265 13.1997 92.0818 13.0829 91.6125 12.9662C91.1431 12.8348 90.5785 12.7692 89.9185 12.7692C89.3465 12.7692 88.8478 12.8859 88.4225 13.1194C87.9971 13.3383 87.7845 13.6886 87.7845 14.1702C87.7845 14.4182 87.8285 14.6371 87.9165 14.8269C88.0191 15.0166 88.1658 15.1918 88.3565 15.3523C88.5618 15.4982 88.8111 15.6369 89.1045 15.7682C89.3978 15.8995 89.7498 16.0382 90.1605 16.1841C90.7031 16.3884 91.1871 16.5928 91.6125 16.7971C92.0378 16.9868 92.3971 17.213 92.6905 17.4757C92.9985 17.7384 93.2331 18.0595 93.3945 18.4389C93.5558 18.8038 93.6365 19.2561 93.6365 19.7961C93.6365 20.8469 93.2405 21.6422 92.4485 22.1822C91.6711 22.7222 90.5565 22.9922 89.1045 22.9922C88.0925 22.9922 87.3005 22.9046 86.7285 22.7295C86.1565 22.569 85.7678 22.4449 85.5625 22.3574L85.9365 20.6061C86.1711 20.6936 86.5451 20.825 87.0585 21.0001C87.5718 21.1752 88.2538 21.2628 89.1045 21.2628ZM97.4048 11.3462H101.739V13.0537H97.4048V18.3075C97.4048 18.8767 97.4488 19.351 97.5368 19.7304C97.6248 20.0953 97.7568 20.3872 97.9328 20.6061C98.1088 20.8104 98.3288 20.9563 98.5928 21.0439C98.8568 21.1315 99.1648 21.1752 99.5168 21.1752C100.133 21.1752 100.624 21.1096 100.991 20.9782C101.372 20.8323 101.636 20.7302 101.783 20.6718L102.179 22.3574C101.973 22.4595 101.614 22.5835 101.101 22.7295C100.587 22.89 100.001 22.9703 99.3408 22.9703C98.5635 22.9703 97.9182 22.8755 97.4048 22.6857C96.9062 22.4814 96.5028 22.1822 96.1948 21.7882C95.8868 21.3942 95.6668 20.9126 95.5348 20.3434C95.4175 19.7596 95.3588 19.0883 95.3588 18.3294V8.17207L97.4048 7.82182V11.3462ZM107.797 11.1054C107.973 11.1054 108.171 11.12 108.391 11.1492C108.625 11.1638 108.853 11.193 109.073 11.2368C109.293 11.266 109.491 11.3025 109.667 11.3462C109.857 11.3754 109.997 11.4046 110.085 11.4338L109.733 13.207C109.571 13.1486 109.3 13.0829 108.919 13.01C108.552 12.9224 108.075 12.8786 107.489 12.8786C107.107 12.8786 106.726 12.9224 106.345 13.01C105.978 13.0829 105.736 13.134 105.618 13.1632V22.7295H103.572V11.8278C104.056 11.6527 104.658 11.4922 105.376 11.3462C106.095 11.1857 106.902 11.1054 107.797 11.1054ZM115.161 21.2628C115.645 21.2628 116.07 21.2555 116.437 21.2409C116.818 21.2118 117.134 21.168 117.383 21.1096V17.7165C117.236 17.6436 116.994 17.5851 116.657 17.5414C116.334 17.483 115.938 17.4538 115.469 17.4538C115.161 17.4538 114.831 17.4757 114.479 17.5195C114.142 17.5633 113.826 17.6581 113.533 17.8041C113.254 17.9354 113.02 18.1252 112.829 18.3732C112.638 18.6067 112.543 18.9205 112.543 19.3145C112.543 20.0442 112.778 20.555 113.247 20.8469C113.716 21.1242 114.354 21.2628 115.161 21.2628ZM114.985 11.0617C115.806 11.0617 116.496 11.1711 117.053 11.39C117.625 11.5943 118.08 11.8935 118.417 12.2876C118.769 12.667 119.018 13.1267 119.165 13.6667C119.312 14.1921 119.385 14.7759 119.385 15.4179V22.5325C119.209 22.5616 118.96 22.6054 118.637 22.6638C118.329 22.7076 117.977 22.7514 117.581 22.7952C117.185 22.8389 116.752 22.8755 116.283 22.9046C115.828 22.9484 115.374 22.9703 114.919 22.9703C114.274 22.9703 113.68 22.9046 113.137 22.7733C112.594 22.6419 112.125 22.4377 111.729 22.1603C111.333 21.8685 111.025 21.489 110.805 21.022C110.585 20.555 110.475 19.9931 110.475 19.3364C110.475 18.7088 110.6 18.1689 110.849 17.7165C111.113 17.264 111.465 16.8993 111.905 16.6219C112.345 16.3446 112.858 16.1403 113.445 16.009C114.032 15.8777 114.648 15.812 115.293 15.812C115.498 15.812 115.711 15.8266 115.931 15.8558C116.151 15.8704 116.356 15.8995 116.547 15.9433C116.752 15.9725 116.928 16.0017 117.075 16.0309C117.222 16.06 117.324 16.0819 117.383 16.0966V15.5274C117.383 15.1918 117.346 14.8634 117.273 14.5423C117.2 14.2067 117.068 13.9147 116.877 13.6667C116.686 13.404 116.422 13.1997 116.085 13.0537C115.762 12.8932 115.337 12.8129 114.809 12.8129C114.134 12.8129 113.54 12.864 113.027 12.9662C112.528 13.0537 112.154 13.1486 111.905 13.2508L111.663 11.5652C111.927 11.4484 112.367 11.339 112.983 11.2368C113.599 11.12 114.266 11.0617 114.985 11.0617ZM129.955 17.0598C129.955 15.7317 129.625 14.7102 128.965 13.995C128.305 13.2799 127.425 12.9224 126.325 12.9224C125.709 12.9224 125.225 12.9443 124.873 12.9881C124.536 13.0318 124.264 13.0829 124.059 13.1413V20.3215C124.308 20.5258 124.668 20.7228 125.137 20.9126C125.606 21.1023 126.12 21.1971 126.677 21.1971C127.264 21.1971 127.762 21.0949 128.173 20.8907C128.598 20.6718 128.943 20.3799 129.207 20.015C129.471 19.6356 129.662 19.1978 129.779 18.7016C129.896 18.1908 129.955 17.6436 129.955 17.0598ZM132.089 17.0598C132.089 17.9208 131.972 18.7162 131.737 19.4459C131.517 20.1755 131.187 20.8031 130.747 21.3285C130.307 21.8539 129.764 22.2625 129.119 22.5544C128.488 22.8462 127.762 22.9922 126.941 22.9922C126.281 22.9922 125.694 22.9046 125.181 22.7295C124.682 22.5544 124.308 22.3865 124.059 22.226V26.7793H122.013V11.6965C122.497 11.5798 123.098 11.4557 123.817 11.3244C124.55 11.1784 125.394 11.1054 126.347 11.1054C127.227 11.1054 128.019 11.2441 128.723 11.5214C129.427 11.7987 130.028 12.1927 130.527 12.7035C131.026 13.2142 131.407 13.8418 131.671 14.5861C131.95 15.3158 132.089 16.1403 132.089 17.0598ZM136.772 16.8846C136.772 17.8916 137 18.7016 137.454 19.3145C137.909 19.9275 138.584 20.2339 139.478 20.2339C139.772 20.2339 140.043 20.2267 140.292 20.212C140.542 20.1829 140.747 20.1536 140.908 20.1245V14.1921C140.703 14.0607 140.432 13.9513 140.094 13.8637C139.772 13.7761 139.442 13.7324 139.104 13.7324C137.55 13.7324 136.772 14.7831 136.772 16.8846ZM144.186 22.3574C143.893 22.4449 143.556 22.5325 143.174 22.62C142.793 22.693 142.39 22.7586 141.964 22.8171C141.554 22.8755 141.128 22.9192 140.688 22.9484C140.263 22.9922 139.852 23.0141 139.456 23.0141C138.503 23.0141 137.652 22.8755 136.904 22.5982C136.156 22.3208 135.526 21.9268 135.012 21.416C134.499 20.8907 134.103 20.2631 133.824 19.5334C133.56 18.7891 133.428 17.9573 133.428 17.0379C133.428 16.1038 133.546 15.2647 133.78 14.5204C134.015 13.7615 134.352 13.1194 134.792 12.594C135.232 12.0686 135.768 11.6673 136.398 11.39C137.044 11.1127 137.777 10.9741 138.598 10.9741C139.053 10.9741 139.456 11.0179 139.808 11.1054C140.175 11.193 140.542 11.3171 140.908 11.4776V6.26757L144.186 5.74219V22.3574ZM150.908 20.4528C151.23 20.4528 151.538 20.4456 151.832 20.431C152.125 20.4163 152.36 20.3944 152.536 20.3653V17.8916C152.404 17.8625 152.206 17.8332 151.942 17.8041C151.678 17.7749 151.436 17.7603 151.216 17.7603C150.908 17.7603 150.614 17.7822 150.336 17.8259C150.072 17.8551 149.837 17.9208 149.632 18.023C149.426 18.1252 149.265 18.2638 149.148 18.4389C149.03 18.614 148.972 18.8329 148.972 19.0956C148.972 19.6064 149.14 19.964 149.478 20.1683C149.83 20.358 150.306 20.4528 150.908 20.4528ZM150.644 10.9084C151.612 10.9084 152.418 11.0179 153.064 11.2368C153.709 11.4557 154.222 11.7695 154.604 12.1781C155 12.5868 155.278 13.0829 155.44 13.6667C155.601 14.2505 155.682 14.8998 155.682 15.615V22.4011C155.212 22.5033 154.56 22.62 153.724 22.7514C152.888 22.8974 151.876 22.9703 150.688 22.9703C149.94 22.9703 149.258 22.9046 148.642 22.7733C148.04 22.6419 147.52 22.4303 147.08 22.1384C146.64 21.832 146.302 21.4379 146.068 20.9563C145.833 20.4747 145.716 19.8837 145.716 19.1832C145.716 18.5118 145.848 17.9427 146.112 17.4757C146.39 17.0087 146.757 16.6366 147.212 16.3593C147.666 16.0819 148.187 15.8849 148.774 15.7682C149.36 15.6369 149.969 15.5712 150.6 15.5712C151.025 15.5712 151.399 15.5931 151.722 15.6369C152.059 15.666 152.33 15.7098 152.536 15.7682V15.4617C152.536 14.9072 152.367 14.462 152.03 14.1264C151.692 13.7908 151.106 13.6229 150.27 13.6229C149.712 13.6229 149.162 13.6667 148.62 13.7542C148.077 13.8272 147.608 13.9366 147.212 14.0826L146.794 11.4557C146.984 11.3973 147.219 11.339 147.498 11.2806C147.791 11.2076 148.106 11.1492 148.444 11.1054C148.781 11.0471 149.133 11.0033 149.5 10.9741C149.881 10.9303 150.262 10.9084 150.644 10.9084ZM161.198 20.3872C161.799 20.3872 162.224 20.3288 162.474 20.212C162.723 20.0953 162.848 19.8691 162.848 19.5334C162.848 19.2707 162.686 19.0446 162.364 18.8548C162.041 18.6505 161.55 18.4243 160.89 18.1762C160.376 17.9864 159.907 17.7894 159.482 17.5851C159.071 17.3809 158.719 17.1401 158.426 16.8627C158.132 16.5709 157.905 16.2279 157.744 15.8339C157.582 15.4398 157.502 14.9655 157.502 14.411C157.502 13.3311 157.905 12.4773 158.712 11.8497C159.518 11.2222 160.626 10.9084 162.034 10.9084C162.738 10.9084 163.412 10.9741 164.058 11.1054C164.703 11.2222 165.216 11.3535 165.598 11.4995L165.026 14.0388C164.644 13.9075 164.226 13.7908 163.772 13.6886C163.332 13.5864 162.833 13.5353 162.276 13.5353C161.249 13.5353 160.736 13.8199 160.736 14.3891C160.736 14.5204 160.758 14.6371 160.802 14.7393C160.846 14.8415 160.934 14.9436 161.066 15.0458C161.198 15.1334 161.374 15.2356 161.594 15.3523C161.828 15.4545 162.122 15.5712 162.474 15.7025C163.192 15.9652 163.786 16.2279 164.256 16.4906C164.725 16.7387 165.092 17.016 165.356 17.3225C165.634 17.6143 165.825 17.9427 165.928 18.3075C166.045 18.6724 166.104 19.0956 166.104 19.5772C166.104 20.7155 165.671 21.5765 164.806 22.1603C163.955 22.7441 162.745 23.036 161.176 23.036C160.149 23.036 159.291 22.9484 158.602 22.7733C157.927 22.5982 157.458 22.4522 157.194 22.3355L157.744 19.6867C158.301 19.9056 158.873 20.0807 159.46 20.212C160.046 20.3288 160.626 20.3872 161.198 20.3872ZM167.783 22.7295V6.26757L171.061 5.74219V11.2587C171.281 11.1857 171.56 11.12 171.897 11.0617C172.249 10.9887 172.587 10.9522 172.909 10.9522C173.848 10.9522 174.625 11.0836 175.241 11.3462C175.872 11.5943 176.371 11.9519 176.737 12.4189C177.119 12.8859 177.383 13.4405 177.529 14.0826C177.691 14.7247 177.771 15.4398 177.771 16.2279V22.7295H174.493V16.6219C174.493 15.5712 174.354 14.8269 174.075 14.3891C173.811 13.9513 173.313 13.7324 172.579 13.7324C172.286 13.7324 172.007 13.7615 171.743 13.8199C171.494 13.8637 171.267 13.9147 171.061 13.9732V22.7295H167.783Z" fill="#282B30"/>
<path d="M30.001 7C30.001 3.13401 26.867 0 23.001 0L17.7153 0C16.6107 0 15.7153 0.895431 15.7153 2L15.7153 28C15.7153 29.1046 16.6107 30 17.7153 30H23.001C26.867 30 30.001 26.866 30.001 23L30.001 7Z" fill="#8170ED"/>
<path d="M14.2861 28C14.2861 29.1046 13.3907 30 12.2861 30L7.00042 30C3.13443 30 0.000418663 26.866 0.000418663 23L0.000418663 15.7143L7.28613 15.7143C11.1521 15.7143 14.2861 18.8483 14.2861 22.7143L14.2861 28Z" fill="#E36176"/>
<path d="M14.2861 2C14.2861 0.895432 13.3907 0 12.2861 0L7.00042 0C3.13443 0 0.000418663 3.13401 0.000418663 7L0.000418663 14.2857L7.28613 14.2857C11.1521 14.2857 14.2861 11.1517 14.2861 7.28572L14.2861 2Z" fill="#7ACF9C"/>
</svg>
