<svg width="149" height="33" viewBox="0 0 149 33" fill="none" xmlns="http://www.w3.org/2000/svg">
<path fill-rule="evenodd" clip-rule="evenodd" d="M11.5026 23.3436C11.5026 19.7309 9.31164 16.535 6.02518 15.4234C2.46485 14.1729 0 10.6991 0 6.80854V1.9453C6.29905 1.9453 11.5026 7.22539 11.5026 13.6171V23.3436Z" fill="#0074BC"/>
<path fill-rule="evenodd" clip-rule="evenodd" d="M23.1418 8.05908H30.1256V7.92013L23.0049 6.94749L23.1418 8.05908Z" fill="#0074BC"/>
<path fill-rule="evenodd" clip-rule="evenodd" d="M23.1415 7.92013C19.1704 7.08644 15.1992 8.47593 12.4605 11.3939L11.502 12.3665V19.0361V24.733V32.0974C13.6929 32.0974 15.0623 29.8742 14.1037 27.9289L13.1452 26.1225C12.4605 24.733 12.7344 22.9267 14.1037 21.9541C17.1163 19.453 19.3073 16.3961 19.855 13.3392C20.5397 9.03173 23.5523 7.92013 23.5523 7.92013H23.1415Z" fill="url(#paint0_linear)"/>
<path fill-rule="evenodd" clip-rule="evenodd" d="M11.502 20.1477V10.5602C11.502 8.19803 12.5974 6.39169 14.2407 5.28009C16.7055 3.75164 19.855 3.89059 22.046 5.83589C22.7307 6.39169 23.2784 7.22538 23.2784 8.05908C16.8425 8.05908 11.502 13.4781 11.502 20.1477Z" fill="url(#paint1_linear)"/>
<path fill-rule="evenodd" clip-rule="evenodd" d="M11.5026 19.0361C11.5026 15.4234 9.31164 12.2276 6.02518 11.116C2.46485 9.86543 0 6.39169 0 2.5011V0C6.29905 0 11.5026 5.28009 11.5026 11.6718V19.0361Z" fill="url(#paint2_linear)"/>
<path fill-rule="evenodd" clip-rule="evenodd" d="M11.503 23.6215L9.58594 32.2363H11.503V23.6215Z" fill="#0074BC"/>
<path fill-rule="evenodd" clip-rule="evenodd" d="M94.7305 30.9914V17.248C94.7305 16.5322 95.2846 15.8164 96.1159 15.8164C96.8086 15.8164 97.5013 16.389 97.5013 17.248V30.8482C97.5013 31.564 96.9471 32.2798 96.1159 32.2798C95.4232 32.2798 94.7305 31.7072 94.7305 30.9914Z" fill="#000031"/>
<path fill-rule="evenodd" clip-rule="evenodd" d="M24.2116 31.2777V18.5365H21.9949C21.3022 18.5365 20.748 17.9638 20.748 17.248C20.748 16.5322 21.3022 15.9596 21.9949 15.9596H29.0606C29.7533 15.9596 30.3075 16.5322 30.3075 17.248C30.3075 17.9638 29.7533 18.5365 29.0606 18.5365H26.8439V31.2777C26.8439 31.9935 26.2897 32.5662 25.597 32.5662H25.4585C24.7658 32.5662 24.2116 31.9935 24.2116 31.2777Z" fill="#000031"/>
<path fill-rule="evenodd" clip-rule="evenodd" d="M46.5176 32.5662V15.9596H53.1676C53.8603 15.9596 54.4145 16.5322 54.4145 17.248C54.4145 17.9638 53.8603 18.5365 53.1676 18.5365H49.2884V22.6881H52.752C53.4447 22.6881 53.9989 23.2607 53.9989 23.9765C53.9989 24.6923 53.4447 25.265 52.752 25.265H49.2884V29.8461H53.4447C54.1374 29.8461 54.6916 30.4188 54.6916 31.1346V31.2777C54.6916 31.9935 54.1374 32.5662 53.4447 32.5662H46.5176Z" fill="#000031"/>
<path fill-rule="evenodd" clip-rule="evenodd" d="M73.6719 32.5662V15.9596H80.3219C81.0146 15.9596 81.5688 16.5322 81.5688 17.248C81.5688 17.9638 81.0146 18.5365 80.3219 18.5365H76.4427V22.6881H79.9063C80.599 22.6881 81.1532 23.2607 81.1532 23.9765C81.1532 24.6923 80.599 25.265 79.9063 25.265H76.4427V29.8461H80.599C81.2917 29.8461 81.8459 30.4188 81.8459 31.1346V31.2777C81.8459 31.9935 81.2917 32.5662 80.599 32.5662H73.6719Z" fill="#000031"/>
<path fill-rule="evenodd" clip-rule="evenodd" d="M84.3398 30.8482V15.8164H90.9899C91.6826 15.8164 92.2367 16.389 92.2367 17.1048C92.2367 17.8206 91.6826 18.3933 90.9899 18.3933H87.1107V22.6881H90.2972C90.9899 22.6881 91.544 23.2607 91.544 23.9765C91.544 24.6923 90.9899 25.265 90.2972 25.265H87.1107V30.9914C87.1107 31.8504 86.5565 32.423 85.7253 32.423C85.0326 32.2798 84.3398 31.7072 84.3398 30.8482Z" fill="#000031"/>
<path fill-rule="evenodd" clip-rule="evenodd" d="M105.398 32.5662C103.735 32.5662 102.211 31.9935 101.241 30.9914C100.964 30.7051 100.826 30.4188 100.687 30.1324C100.133 29.2735 100.826 28.1282 101.795 28.1282H101.934C102.35 28.1282 102.765 28.4145 103.042 28.7008C103.181 28.844 103.181 28.9872 103.319 29.1303C103.874 29.703 104.566 29.9893 105.398 29.9893C107.06 29.9893 108.03 28.9872 108.03 27.5556C108.03 25.4081 105.813 25.265 104.982 25.1218C103.596 24.9787 100.271 24.406 100.271 20.3975C100.271 17.3912 102.211 15.5301 105.259 15.5301C106.783 15.5301 108.168 15.9596 109 16.9617C109.277 17.248 109.415 17.5343 109.692 17.8207C110.108 18.6796 109.554 19.8249 108.584 19.8249C108.168 19.8249 107.753 19.5386 107.476 19.1091C107.337 18.9659 107.337 18.8228 107.199 18.6796C106.783 18.2501 106.09 17.9638 105.398 17.9638C103.874 17.9638 102.904 18.9659 102.904 20.3975C102.904 21.1133 103.181 22.4018 105.536 22.6881C108.861 22.9744 110.801 23.9765 110.801 27.5556C110.801 30.7051 108.723 32.5662 105.398 32.5662Z" fill="#000031"/>
<path fill-rule="evenodd" clip-rule="evenodd" d="M121.746 30.8482V25.4081H116.343V30.8482C116.343 31.7072 115.789 32.2798 114.958 32.2798C114.126 32.2798 113.572 31.7072 113.572 30.8482V17.248C113.572 16.389 114.126 15.8164 114.958 15.8164C115.789 15.8164 116.343 16.389 116.343 17.248V22.6881H121.746V17.248C121.746 16.389 122.3 15.8164 123.132 15.8164C123.963 15.8164 124.517 16.389 124.517 17.248V30.8482C124.517 31.7072 123.963 32.2798 123.132 32.2798C122.439 32.2798 121.746 31.7072 121.746 30.8482Z" fill="#000031"/>
<path fill-rule="evenodd" clip-rule="evenodd" d="M40.6984 30.8482V25.4081H35.2953V30.8482C35.2953 31.7072 34.7411 32.2798 33.9098 32.2798C33.0786 32.2798 32.5244 31.7072 32.5244 30.8482V17.248C32.5244 16.389 33.0786 15.8164 33.9098 15.8164C34.7411 15.8164 35.2953 16.389 35.2953 17.248V22.6881H40.6984V17.248C40.6984 16.389 41.2526 15.8164 42.0838 15.8164C42.9151 15.8164 43.4692 16.389 43.4692 17.248V30.8482C43.4692 31.7072 42.9151 32.2798 42.0838 32.2798C41.2526 32.2798 40.6984 31.7072 40.6984 30.8482Z" fill="#000031"/>
<path fill-rule="evenodd" clip-rule="evenodd" d="M127.703 32.2798V15.8164H134.353C135.046 15.8164 135.6 16.389 135.6 17.1048C135.6 17.8206 135.046 18.3933 134.353 18.3933H130.474V22.5449H133.938C134.63 22.5449 135.184 23.1176 135.184 23.8334C135.184 24.5492 134.63 25.1218 133.938 25.1218H130.474V29.703H134.492C135.184 29.703 135.739 30.2756 135.739 30.9914V31.1346C135.739 31.8504 135.184 32.423 134.492 32.423H127.703V32.2798Z" fill="#000031"/>
<path d="M145.714 31.4209L143.774 26.6966H140.865V30.8482C140.865 31.564 140.31 32.2798 139.479 32.2798C138.786 32.2798 138.094 31.7072 138.094 30.8482V15.9596H143.497C146.545 15.9596 148.623 18.107 148.623 21.5428C148.623 23.5471 148.069 24.8355 146.822 25.6945L146.268 26.1239L148.207 30.2756C148.623 31.2777 147.93 32.2798 146.96 32.2798C146.406 32.2798 145.852 31.9935 145.714 31.4209ZM140.726 24.406H143.358C144.882 24.406 145.852 23.1176 145.852 21.3997C145.852 19.6817 144.882 18.3933 143.358 18.3933H140.726V24.406Z" fill="#000031"/>
<path fill-rule="evenodd" clip-rule="evenodd" d="M67.7148 31.1346V22.6881L64.5283 29.1303C64.2512 29.703 63.4199 29.703 63.1429 29.1303L59.9564 22.6881V31.1346C59.9564 31.9935 59.2637 32.5662 58.571 32.5662C57.7397 32.5662 57.1855 31.8504 57.1855 31.1346V17.3912C57.1855 15.9596 58.8481 15.3869 59.6793 16.5322L63.5585 24.8355C63.697 24.9787 63.9741 24.9787 63.9741 24.8355L67.8533 16.5322C68.6846 15.5301 70.3471 16.1027 70.3471 17.3912V31.1346C70.3471 31.9935 69.6543 32.5662 68.9616 32.5662C68.2689 32.5662 67.7148 31.9935 67.7148 31.1346Z" fill="#000031"/>
<defs>
<linearGradient id="paint0_linear" x1="17.9187" y1="8.64448" x2="9.82287" y2="24.6016" gradientUnits="userSpaceOnUse">
<stop stop-color="#FFDD00"/>
<stop offset="1" stop-color="#EF4056"/>
</linearGradient>
<linearGradient id="paint1_linear" x1="23.7906" y1="12.1776" x2="-1.35017" y2="12.1776" gradientUnits="userSpaceOnUse">
<stop stop-color="#5BC4BF"/>
<stop offset="1" stop-color="#2A5CAA"/>
</linearGradient>
<linearGradient id="paint2_linear" x1="-0.0328646" y1="9.55946" x2="18.898" y2="9.55946" gradientUnits="userSpaceOnUse">
<stop stop-color="#5BC4BF"/>
<stop offset="1" stop-color="#2A5CAA"/>
</linearGradient>
</defs>
</svg>
