<svg width="32" height="46" viewBox="0 0 32 46" fill="none" xmlns="http://www.w3.org/2000/svg">
<g clip-path="url(#clip0_2_470)">
<path d="M31.9434 9.01562L29.0383 42.1917L15.9796 45.8821L2.95681 42.1968L0.0546875 9.01562H31.9434Z" fill="#E44D26"/>
<path d="M16 43.0631L26.5521 40.081L29.0346 11.7305H16V43.0631Z" fill="#F16529"/>
<path d="M10.3512 19.8703H15.9987V15.8008H5.98828L6.08378 16.8925L7.06503 28.1071H15.9987V24.0376H10.716L10.3512 19.8703ZM11.2509 30.142H7.24341L7.80266 36.5317L15.9803 38.8458L15.9987 38.8407V34.6066L15.9812 34.6113L11.5352 33.3876L11.2509 30.142Z" fill="#EBEBEB"/>
<path d="M3.02344 0H5.05219V2.04324H6.90806V0H8.93694V6.18745H6.90819V4.11553H5.05231V6.18745H3.02356V0H3.02344ZM11.6047 2.05191H9.81894V0H15.4207V2.05191H13.6338V6.18745H11.6051V2.05191H11.6049H11.6047ZM16.3097 0H18.4251L19.7263 2.17411L21.0263 0H23.1426V6.18745H21.1221V3.12061L19.7263 5.32058H19.6913L18.2947 3.12061V6.18745H16.3097V0ZM24.1522 0H26.1816V4.14229H29.0346V6.18745H24.1521V0H24.1522Z" fill="#222222"/>
<path d="M15.9845 28.1071H20.9004L20.4369 33.385L15.9844 34.6101V38.8439L24.1685 36.5317L24.2285 35.8442L25.1668 25.1304L25.2641 24.0376H15.9845V28.1071ZM15.9845 19.8604V19.8703H25.6274L25.7074 18.9557L25.8894 16.8925L25.9847 15.8008H15.9845V19.8605V19.8604Z" fill="white"/>
</g>
<defs>
<clipPath id="clip0_2_470">
<rect width="32" height="46" fill="white"/>
</clipPath>
</defs>
</svg>
