<svg width="12" height="15" viewBox="0 0 12 15" fill="none" xmlns="http://www.w3.org/2000/svg">
<g clip-path="url(#clip0)">
<path d="M3.01016 4.58337C3.01016 5.83337 3.01016 7.08337 3.01016 8.32295C3.01016 8.61462 3.03099 8.7917 3.41641 8.65629C4.30182 8.34379 5.24974 8.34379 6.16641 8.21879C6.56224 8.1667 6.94766 8.08337 7.31224 7.92712C7.97891 7.65629 8.21849 7.12504 8.21849 6.44795C8.67682 6.2917 9.12474 6.2917 9.58307 6.44795C9.68724 8.58337 8.19766 9.31254 6.55182 9.56254C5.77057 9.67712 4.98932 9.77087 4.19766 9.87504C3.78099 9.92712 3.44766 10.125 3.22891 10.4896C2.69766 10.5625 2.17682 10.4792 1.65599 10.3959C1.65599 8.45837 1.65599 6.51045 1.65599 4.57295C2.10391 4.42712 2.56224 4.42712 3.01016 4.58337Z" fill="#DADEE2"/>
<path d="M1.65626 10.4062C2.18752 10.2499 2.70835 10.3333 3.22918 10.4999C4.59377 11.0312 5.29168 12.9166 4.01043 14.2499C3.35418 14.9374 2.53127 15.1874 1.58335 14.8541C0.625015 14.4999 0.0729314 13.7812 0.0104314 12.7916C-0.0520686 11.802 0.395848 11.0208 1.32293 10.5624C1.43751 10.5104 1.54168 10.4583 1.65626 10.4062Z" fill="#183B56"/>
<path d="M3.01057 4.58402C2.55223 4.66735 2.10432 4.66735 1.64598 4.58402C1.0314 4.31319 0.510568 3.95902 0.218901 3.30277C-0.312349 2.10485 0.145985 0.823603 1.33348 0.250686C2.5314 -0.32223 3.81265 0.125686 4.39598 1.31319C4.97932 2.5111 4.55223 3.79235 3.37515 4.39652C3.26057 4.45902 3.13557 4.52152 3.01057 4.58402Z" fill="#183B56"/>
<path d="M9.57307 6.45829C9.11474 6.55204 8.66682 6.54162 8.20849 6.45829C7.5939 6.18745 7.07307 5.83329 6.7814 5.17704C6.25015 3.97912 6.70849 2.69787 7.89599 2.12495C9.0939 1.55204 10.3752 1.99995 10.9585 3.18745C11.5418 4.38537 11.1147 5.66662 9.93765 6.27079C9.82307 6.33329 9.69807 6.39579 9.57307 6.45829Z" fill="#183B56"/>
<path d="M2.30229 13.1146C2.00021 13.0729 1.84396 12.9063 1.86479 12.6042C1.88562 12.3229 2.06271 12.1771 2.34396 12.1875C2.62521 12.1979 2.79187 12.3646 2.79187 12.6459C2.79187 12.9479 2.61479 13.1042 2.30229 13.1146Z" fill="#F5F6F7"/>
<path d="M2.80208 2.33331C2.78125 2.63539 2.625 2.81247 2.3125 2.80205C2.03125 2.79164 1.875 2.62497 1.875 2.34372C1.875 2.03122 2.05208 1.86456 2.35417 1.87497C2.63542 1.87497 2.78125 2.05206 2.80208 2.33331Z" fill="#F5F6F7"/>
<path d="M9.36444 4.15617C9.3436 4.4895 9.19777 4.677 8.88527 4.66659C8.60402 4.66659 8.43736 4.49992 8.43736 4.21867C8.42694 3.90617 8.60402 3.7395 8.9061 3.7395C9.18735 3.74992 9.32277 3.927 9.36444 4.15617Z" fill="#F5F6F7"/>
</g>
<defs>
<clipPath id="clip0">
<rect width="11.2292" height="15" fill="white"/>
</clipPath>
</defs>
</svg>
