<svg width="12" height="15" viewBox="0 0 12 15" fill="none" xmlns="http://www.w3.org/2000/svg">
<path d="M0 3.694C0 2.76665 0.751761 2.01489 1.6791 2.01489H9.51493C10.4423 2.01489 11.194 2.76665 11.194 3.694V13.3209C11.194 14.2482 10.4423 15 9.51493 15H1.6791C0.75176 15 0 14.2482 0 13.3209V3.694Z" fill="#DADEE2"/>
<path d="M3.47018 6.15675C3.47018 6.52769 3.16947 6.82839 2.79853 6.82839C2.4276 6.82839 2.12689 6.52769 2.12689 6.15675C2.12689 5.78581 2.4276 5.48511 2.79853 5.48511C3.16947 5.48511 3.47018 5.78581 3.47018 6.15675Z" fill="#183B56"/>
<path d="M3.47018 8.95533C3.47018 9.32627 3.16947 9.62697 2.79853 9.62697C2.4276 9.62697 2.12689 9.32627 2.12689 8.95533C2.12689 8.5844 2.4276 8.28369 2.79853 8.28369C3.16947 8.28369 3.47018 8.5844 3.47018 8.95533Z" fill="#183B56"/>
<path d="M3.47018 11.7537C3.47018 12.1246 3.16947 12.4253 2.79853 12.4253C2.4276 12.4253 2.12689 12.1246 2.12689 11.7537C2.12689 11.3827 2.4276 11.082 2.79853 11.082C3.16947 11.082 3.47018 11.3827 3.47018 11.7537Z" fill="#183B56"/>
<path d="M4.36566 6.15675C4.36566 5.90945 4.56613 5.70898 4.81342 5.70898H8.61939C8.86668 5.70898 9.06715 5.90945 9.06715 6.15675C9.06715 6.40404 8.86668 6.60451 8.61939 6.60451H4.81342C4.56613 6.60451 4.36566 6.40404 4.36566 6.15675Z" fill="#183B56"/>
<path d="M4.36566 8.95533C4.36566 8.70804 4.56613 8.50757 4.81342 8.50757H8.61939C8.86668 8.50757 9.06715 8.70804 9.06715 8.95533C9.06715 9.20262 8.86668 9.40309 8.61939 9.40309H4.81342C4.56613 9.40309 4.36566 9.20262 4.36566 8.95533Z" fill="#183B56"/>
<path d="M4.36566 11.7537C4.36566 11.5064 4.56613 11.3059 4.81342 11.3059H8.61939C8.86668 11.3059 9.06715 11.5064 9.06715 11.7537C9.06715 12.001 8.86668 12.2014 8.61939 12.2014H4.81342C4.56613 12.2014 4.36566 12.001 4.36566 11.7537Z" fill="#183B56"/>
<path d="M7.93364 1.86875C8.62201 2.14751 9.15393 2.5605 9.3521 3.30387C9.43554 3.59296 9.37296 3.71685 9.04963 3.71685C6.77592 3.71685 4.51264 3.71685 2.23893 3.71685C1.91561 3.71685 1.85303 3.59296 1.93647 3.30387C2.13464 2.55017 2.66656 2.13719 3.35493 1.86875C3.61568 1.89972 3.7304 1.8068 3.80341 1.51771C4.05373 0.547203 4.75253 0 5.6495 0C6.54647 0 7.24527 0.547203 7.48516 1.51771C7.55816 1.79648 7.67289 1.8894 7.93364 1.86875Z" fill="#183B56"/>
<circle cx="5.59669" cy="1.56727" r="0.783582" fill="white"/>
</svg>
