<svg width="12" height="15" viewBox="0 0 12 15" fill="none" xmlns="http://www.w3.org/2000/svg">
<path d="M6.5625 3.98485V0H0.702652C0.314394 0 0 0.314394 0 0.702652V14.2973C0 14.6856 0.314394 15 0.702652 15H10.5473C10.9375 15 11.25 14.6856 11.25 14.2973V4.6875H7.26515C6.87879 4.6875 6.5625 4.37121 6.5625 3.98485Z" fill="#DADEE2"/>
<path d="M11.25 4.70833V4.94318H7.0455C6.6794 4.94318 6.38262 4.6464 6.38262 4.2803V0H6.61368C6.8561 0 7.08906 0.0965909 7.25951 0.270833L10.983 4.05492C11.1553 4.22917 11.25 4.46402 11.25 4.70833Z" fill="#183B56"/>
<rect x="2.4" y="6.8999" width="6.45" height="1.2" rx="0.6" fill="#183B56"/>
<rect x="2.4" y="9.1499" width="6.45" height="1.2" rx="0.6" fill="#183B56"/>
<rect x="2.4" y="11.3999" width="6.45" height="1.2" rx="0.6" fill="#183B56"/>
</svg>
