<svg width="16" height="15" viewBox="0 0 16 15" fill="none" xmlns="http://www.w3.org/2000/svg">
<g clip-path="url(#clip0)">
<path d="M7.53648 0C9.36067 0 11.1849 0 13.009 0C14.2286 0 15.0104 0.792217 15.0104 2.03266C15.0104 4.7533 15.0104 7.48436 15.0104 10.205C15.0104 11.3933 14.2078 12.1855 13.0195 12.196C11.9249 12.196 10.8304 12.2272 9.73593 12.1855C9.14177 12.1647 8.67269 12.3211 8.21404 12.6859C7.33843 13.3947 6.43155 14.0618 5.52467 14.729C5.35789 14.8541 5.20153 15.0938 4.94093 14.9687C4.64906 14.8332 4.69076 14.5413 4.69076 14.2808C4.69076 13.7283 4.68033 13.1654 4.70118 12.6129C4.71161 12.3002 4.60737 12.1855 4.28422 12.1855C3.50243 12.2064 2.72064 12.196 1.93885 12.1855C0.823489 12.1855 0.0104239 11.3725 0 10.2571C0 7.47394 0 4.70118 0 1.918C0.0104239 0.833912 0.823488 0.0104239 1.90757 0C3.78388 0 5.66018 0 7.53648 0Z" fill="#DADEE2"/>
<path d="M7.56758 4.27368C8.63082 4.27368 9.68364 4.27368 10.7469 4.27368C11.0387 4.27368 11.2576 4.31538 11.2576 4.68021C11.2576 5.03463 11.0804 5.11802 10.7677 5.11802C8.59955 5.10759 6.43138 5.11802 4.2632 5.11802C3.97134 5.11802 3.75243 5.07632 3.75243 4.71149C3.74201 4.30495 3.98176 4.27368 4.29448 4.27368C5.38899 4.27368 6.4835 4.27368 7.56758 4.27368Z" fill="#183B56"/>
<path d="M6.09797 7.08829C6.72341 7.08829 7.34884 7.09871 7.97428 7.08829C8.29742 7.07787 8.45377 7.19253 8.45377 7.53652C8.44335 7.87008 8.25572 7.93263 7.97428 7.93263C6.72341 7.9222 5.47254 7.9222 4.23209 7.93263C3.90895 7.93263 3.75259 7.82839 3.75259 7.4844C3.76302 7.15083 3.95065 7.08829 4.23209 7.08829C4.8471 7.08829 5.47254 7.08829 6.09797 7.08829Z" fill="#183B56"/>
</g>
<defs>
<clipPath id="clip0">
<rect width="15.0104" height="15" fill="white"/>
</clipPath>
</defs>
</svg>
