<?xml version="1.0" encoding="UTF-8"?>
<svg width="130px" height="40px" viewBox="0 0 130 40" version="1.1" xmlns="http://www.w3.org/2000/svg" xmlns:xlink="http://www.w3.org/1999/xlink">
    <!-- Generator: Sketch 55.2 (78181) - https://sketchapp.com -->
    <title>Group 14</title>
    <desc>Created with Sketch.</desc>
    <g id="Page-1" stroke="none" stroke-width="1" fill="none" fill-rule="evenodd">
        <g id="Group-14" fill-rule="nonzero">
            <g id="Bootstrap-Copy">
                <circle id="Oval-Copy-7" fill="#2ADCB1" cx="20" cy="20" r="20"></circle>
                <g id="brush" transform="translate(12.500000, 13.000000)" fill="#FFFFFF">
                    <path d="M12.8333333,0 L1.16666667,0 C0.522447917,0 0,0.517783203 0,1.15625 L0,9.25 L14,9.25 L14,1.15625 C14,0.517783203 13.4775521,0 12.8333333,0 Z M0,11.5625 C0,12.8397949 1.04489583,13.875 2.33333333,13.875 L4.66666667,13.875 L4.66666667,16.1875 C4.66666667,17.4647949 5.7115625,18.5 7,18.5 C8.2884375,18.5 9.33333333,17.4647949 9.33333333,16.1875 L9.33333333,13.875 L11.6666667,13.875 C12.9551042,13.875 14,12.8397949 14,11.5625 L14,10.40625 L0,10.40625 L0,11.5625 Z M7,15.3203125 C7.48307292,15.3203125 7.875,15.7083789 7.875,16.1875 C7.875,16.6662598 7.48307292,17.0546875 7,17.0546875 C6.51692708,17.0546875 6.125,16.6662598 6.125,16.1875 C6.125,15.7083789 6.51692708,15.3203125 7,15.3203125 Z" id="Shape"></path>
                </g>
            </g>
            <g id="Tools-Copy" transform="translate(45.000000, 0.000000)">
                <circle id="Oval-Copy-6" fill="#B863D8" cx="20" cy="20" r="20"></circle>
                <g id="chess-knight" transform="translate(13.500000, 10.000000)" fill="#FFFFFF">
                    <path d="M15.125,8.2 L15.125,17.7666667 L1.375,17.7666667 L1.375,15.7782948 C1.375,14.4841469 2.110625,13.3010833 3.27520703,12.7223427 L5.73486719,11.4999448 C6.43362032,11.1526908 6.875006,10.4428407 6.875,9.66634792 L6.875,7.51666667 L5.92423047,7.98914896 C5.65495922,8.12294643 5.45796786,8.3670302 5.38497266,8.65732083 L4.8764375,10.6790479 C4.83627766,10.8386953 4.72143088,10.9694642 4.56770703,11.0305802 L3.29578907,11.5362469 C3.16661059,11.5876128 3.02202816,11.584902 2.89489063,11.5287302 L0.306195316,10.3852573 C0.119990648,10.3029944 0,10.1194526 0,9.91691771 L0,3.15789688 C0,2.88605833 0.108667972,2.62532396 0.302070316,2.43309375 L0.687500004,2.05 L0.0768710975,0.83614375 C0.0263076679,0.735660073 0,0.62485094 0,0.5125 C0,0.229471875 0.230871097,0 0.515625004,0 L6.875,0 C11.4313633,0 15.125,3.67125104 15.125,8.2 Z M15.984375,18.45 L0.515625004,18.45 C0.230871097,18.45 3.73926667e-09,18.6794719 3.73926667e-09,18.9625 L3.73926667e-09,19.9875 C3.73926667e-09,20.2705281 0.230871097,20.5 0.515625004,20.5 L15.984375,20.5 C16.2691289,20.5 16.5,20.2705281 16.5,19.9875 L16.5,18.9625 C16.5,18.6794719 16.2691289,18.45 15.984375,18.45 Z M2.234375,4.1 C1.75974219,4.1 1.375,4.48241042 1.375,4.95416667 C1.375,5.42592292 1.75974219,5.80833333 2.234375,5.80833333 C2.70900782,5.80833333 3.09375,5.42592292 3.09375,4.95416667 C3.09375,4.48241042 2.70900782,4.1 2.234375,4.1 Z" id="Shape"></path>
                </g>
            </g>
            <g id="Support-Copy" transform="translate(90.000000, 0.000000)">
                <circle id="Oval" fill="#FFB155" cx="20" cy="20" r="20"></circle>
                <g id="user-shield" transform="translate(10.500000, 10.000000)" fill="#FFFFFF">
                    <path d="M23.33625,10.0603516 L19.01625,8.39042969 C18.8625,8.33105469 18.54375,8.253125 18.18375,8.39042969 L13.86375,10.0603516 C13.4625,10.2162109 13.2,10.5798828 13.2,10.984375 C13.2,15.1257812 15.77625,17.990625 18.18375,18.9220703 C18.54375,19.059375 18.85875,18.9814453 19.01625,18.9220703 C20.94,18.1798828 24,15.6044922 24,10.984375 C24,10.5798828 23.7375,10.2162109 23.33625,10.0603516 Z M18.6,17.159375 L18.6,10.1419922 L22.18125,11.5261719 C21.97125,14.7583984 19.8975,16.5507813 18.6,17.159375 L18.6,17.159375 Z M8.4,9.5 C11.05125,9.5 13.2,7.37363281 13.2,4.75 C13.2,2.12636719 11.05125,0 8.4,0 C5.74875,0 3.6,2.12636719 3.6,4.75 C3.6,7.37363281 5.74875,9.5 8.4,9.5 Z M12,10.984375 C12,10.8916016 12.03,10.80625 12.04125,10.7171875 C11.9475,10.7134766 11.8575,10.6875 11.76,10.6875 L11.13375,10.6875 C10.30125,11.0660156 9.375,11.28125 8.4,11.28125 C7.425,11.28125 6.5025,11.0660156 5.66625,10.6875 L5.04,10.6875 C2.2575,10.6875 0,12.9214844 0,15.675 L0,17.21875 C0,18.2021484 0.80625,19 1.8,19 L15,19 C15.255,19 15.49875,18.9443359 15.72,18.8515625 C13.695,17.2595703 12,14.5208984 12,10.984375 Z" id="Shape"></path>
                </g>
            </g>
        </g>
    </g>
</svg>