<svg width="16" height="16" viewBox="0 0 16 16" fill="none" xmlns="http://www.w3.org/2000/svg">
<path opacity="0.15" d="M8 16C12.4183 16 16 12.4183 16 8C16 3.58172 12.4183 0 8 0C3.58172 0 0 3.58172 0 8C0 12.4183 3.58172 16 8 16Z" fill="#36B37E"/>
<path d="M6.93229 10.5495L4.75782 8.38801C4.69705 8.32725 4.66667 8.24913 4.66667 8.15364C4.66667 8.05815 4.69705 7.98003 4.75782 7.91926L5.23959 7.45052C5.30035 7.38107 5.37631 7.34635 5.46745 7.34635C5.5586 7.34635 5.63889 7.38107 5.70834 7.45052L7.16667 8.90885L10.2917 5.78385C10.3611 5.71441 10.4414 5.67969 10.5325 5.67969C10.6237 5.67969 10.6996 5.71441 10.7604 5.78385L11.2422 6.2526C11.3029 6.31337 11.3333 6.39149 11.3333 6.48698C11.3333 6.58246 11.3029 6.66059 11.2422 6.72135L7.40104 10.5495C7.34028 10.6189 7.26215 10.6536 7.16667 10.6536C7.07118 10.6536 6.99306 10.6189 6.93229 10.5495Z" fill="#36B37E"/>
</svg>
